<svg width="150" height="150" viewBox="0 0 150 150" fill="none" xmlns="http://www.w3.org/2000/svg">
<circle cx="75" cy="75" r="75" fill="url(#paint0_linear_683_193)"/>
<path d="M80.2789 21.3675C79.3835 21.2783 78.6168 20.9852 77.9788 20.4884C77.3407 19.9916 76.8639 19.3413 76.5484 18.5375C76.2329 17.7337 76.1258 16.8235 76.227 15.807C76.3283 14.7904 76.6124 13.9239 77.0794 13.2075C77.5473 12.4818 78.1524 11.9393 78.8946 11.58C79.6461 11.2216 80.4835 11.0884 81.4068 11.1804C82.442 11.2835 83.3067 11.6334 84.0007 12.23C84.7051 12.8182 85.1754 13.5809 85.4117 14.518L83.6422 14.9775C83.4937 14.3882 83.2115 13.9127 82.7954 13.551C82.3886 13.1902 81.8682 12.9782 81.234 12.915C80.6558 12.8574 80.134 12.942 79.6687 13.1688C79.2128 13.3965 78.8431 13.7506 78.5598 14.231C78.2867 14.703 78.1154 15.2887 78.0457 15.9882C77.976 16.6876 78.028 17.3003 78.2016 17.8262C78.3846 18.3531 78.6771 18.7731 79.0792 19.0863C79.4906 19.4004 79.9854 19.5863 80.5636 19.6439C80.862 19.6737 81.174 19.6624 81.4994 19.61C81.8249 19.5577 82.1284 19.4419 82.41 19.2627C82.7018 19.0752 82.9456 18.8028 83.1413 18.4455C83.3463 18.0892 83.4777 17.6219 83.5353 17.0437L83.591 16.4841L83.8713 17.7836L81.0734 17.5048L81.2351 15.8821L85.236 16.2807L84.7078 21.5827L83.113 21.4238L83.0187 19.8179L83.3028 20.0864C83.1005 20.4147 82.8432 20.6811 82.5309 20.8854C82.2185 21.0898 81.8703 21.2293 81.4861 21.3041C81.1103 21.3891 80.7079 21.4102 80.2789 21.3675Z" fill="white"/>
<path d="M89.5894 23.0442C89.0116 22.8831 88.5415 22.6499 88.179 22.3446C87.8166 22.0392 87.544 21.6908 87.3612 21.2993C87.19 20.9013 87.0978 20.4816 87.0846 20.0401C87.074 19.5895 87.1316 19.1386 87.2574 18.6872C87.3782 18.2538 87.5597 17.8471 87.8019 17.467C88.044 17.087 88.338 16.7651 88.6839 16.5016C89.0298 16.238 89.4291 16.0622 89.8817 15.9743C90.3459 15.8799 90.8578 15.9107 91.4176 16.0668C91.9412 16.2127 92.372 16.4301 92.7098 16.7189C93.0502 16.9986 93.3028 17.3317 93.4675 17.7182C93.6347 18.0956 93.7237 18.5096 93.7343 18.9601C93.754 19.4132 93.6984 19.8744 93.5675 20.3439C93.5499 20.4071 93.5202 20.4961 93.4785 20.611C93.4483 20.7193 93.4065 20.8341 93.3532 20.9555L88.7895 19.6834C88.7012 20.1745 88.7766 20.5847 89.0156 20.914C89.2637 21.2458 89.6224 21.4772 90.0919 21.6081C90.435 21.7037 90.7854 21.7381 91.1431 21.7113C91.5033 21.6755 91.8413 21.58 92.157 21.4248L92.6796 22.7964C92.2956 22.9521 91.9423 23.0676 91.6197 23.1431C91.297 23.2186 90.9734 23.2451 90.6488 23.2228C90.3308 23.2119 89.9776 23.1524 89.5894 23.0442ZM91.9622 19.6629C92.0004 19.5957 92.0341 19.5273 92.0632 19.4575C92.1014 19.3904 92.1293 19.3252 92.1469 19.262C92.1998 19.0724 92.2127 18.8863 92.1858 18.7036C92.1614 18.5119 92.1036 18.3353 92.0124 18.1737C91.9213 18.012 91.7942 17.8745 91.6313 17.7609C91.4799 17.6409 91.2913 17.5494 91.0656 17.4865C90.7316 17.3934 90.4328 17.3831 90.1694 17.4556C89.9059 17.5281 89.6853 17.6563 89.5075 17.8403C89.3413 18.0178 89.2132 18.2156 89.1232 18.4337L92.6442 19.4152L91.9622 19.6629Z" fill="white"/>
<path d="M96.4894 25.5054C96.143 25.3621 95.8494 25.1646 95.6087 24.9129C95.368 24.6612 95.2176 24.3505 95.1575 23.9808C95.1062 23.6146 95.1826 23.1848 95.3868 22.6911L97.875 16.6763L99.872 16.4831L97.2064 22.9266C97.0523 23.299 96.9835 23.6001 96.9999 23.8301C97.025 24.0636 97.1848 24.2413 97.4793 24.3631C97.5659 24.3989 97.6647 24.4297 97.7758 24.4553C97.8956 24.4846 98.0276 24.5088 98.1718 24.5279L97.6613 25.762C97.4507 25.7561 97.2492 25.7285 97.0565 25.6792C96.8603 25.6386 96.6713 25.5807 96.4894 25.5054ZM95.5665 18.9467L96.0878 17.6866L100.284 19.4225L99.7626 20.6826L95.5665 18.9467Z" fill="white"/>
<path d="M105.952 30.6524L106.409 29.7071L108.247 26.928C108.474 26.584 108.533 26.2576 108.423 25.9486C108.325 25.6371 108.093 25.3598 107.725 25.1168C107.421 24.9152 107.067 24.7709 106.663 24.684C106.273 24.5944 105.884 24.579 105.497 24.6376L105.418 23.1523C106.041 23.0928 106.611 23.1323 107.126 23.2708C107.654 23.4066 108.165 23.6374 108.657 23.9631C109.454 24.4905 109.944 25.1008 110.126 25.7942C110.308 26.4876 110.166 27.1861 109.701 27.8896L107.289 31.5365L105.952 30.6524ZM104.127 29.6141C103.705 29.3349 103.378 29.006 103.145 28.6273C102.92 28.2538 102.806 27.8578 102.802 27.4393C102.805 27.026 102.931 26.6317 103.179 26.2565C103.402 25.9203 103.657 25.679 103.945 25.5323C104.246 25.383 104.551 25.3208 104.86 25.3457C105.133 25.3577 105.403 25.4178 105.668 25.526C105.942 25.6393 106.215 25.7865 106.489 25.9675L108.283 27.154L107.569 28.2328L105.986 27.1859C105.861 27.1031 105.728 27.0321 105.588 26.9729C105.46 26.911 105.33 26.8867 105.198 26.9002C105.083 26.9032 104.978 26.9348 104.882 26.995C104.791 27.0473 104.712 27.1243 104.645 27.2259C104.5 27.4448 104.47 27.6775 104.554 27.9242C104.638 28.1708 104.825 28.3898 105.114 28.5811C105.372 28.7517 105.643 28.8521 105.926 28.8822C106.223 28.9097 106.498 28.8671 106.752 28.7544C107.02 28.6391 107.239 28.4524 107.409 28.1944L107.284 29.2243C106.914 29.5635 106.538 29.7924 106.156 29.9108C105.787 30.0265 105.431 30.0551 105.088 29.9966C104.745 29.9381 104.425 29.8106 104.127 29.6141Z" fill="white"/>
<path d="M111.763 35.2885L118.79 28.459L123.356 33.1569L122.187 34.2935L118.885 30.8961L117.211 32.5227L120.082 35.4765L118.923 36.6033L116.052 33.6495L113.027 36.589L111.763 35.2885Z" fill="white"/>
<path d="M116.955 40.901L122.479 36.7158L123.54 38.1165L122.039 39.2541L121.855 39.0581C122.193 38.8372 122.551 38.7193 122.927 38.7043C123.304 38.6894 123.653 38.7542 123.974 38.8989C124.309 39.0454 124.575 39.2493 124.773 39.5108C124.915 39.6976 125.021 39.893 125.094 40.0969C125.179 40.3027 125.234 40.5377 125.257 40.8019L123.493 41.0803C123.475 40.9642 123.437 40.8285 123.378 40.6732C123.32 40.5179 123.242 40.3767 123.146 40.2497C123.033 40.1003 122.896 39.9744 122.736 39.8721C122.582 39.7773 122.407 39.7162 122.21 39.6891C122.018 39.6694 121.804 39.6967 121.566 39.7709C121.439 39.8203 121.285 39.896 121.103 39.9981C120.935 40.102 120.698 40.27 120.391 40.502L118.016 42.3017L116.955 40.901Z" fill="white"/>
<path d="M121.742 48.1812C121.442 47.6617 121.27 47.166 121.225 46.6942C121.18 46.2225 121.229 45.7828 121.372 45.3753C121.529 44.9712 121.757 44.607 122.056 44.2825C122.364 43.9533 122.721 43.6716 123.127 43.4374C123.517 43.2125 123.931 43.0491 124.37 42.9472C124.809 42.8454 125.244 42.8214 125.676 42.8753C126.107 42.9293 126.515 43.0833 126.9 43.3374C127.298 43.5949 127.642 43.9753 127.932 44.4786C128.204 44.9494 128.359 45.4061 128.398 45.8489C128.446 46.287 128.393 46.7016 128.24 47.0929C128.095 47.4795 127.869 47.8373 127.561 48.1665C127.258 48.5038 126.895 48.7942 126.473 49.0379C126.416 49.0707 126.333 49.1134 126.222 49.1662C126.125 49.2225 126.015 49.2752 125.892 49.3246L123.523 45.2213C123.117 45.5102 122.883 45.8559 122.823 46.2584C122.768 46.669 122.863 47.0853 123.106 47.5074C123.284 47.8159 123.51 48.0858 123.784 48.3171C124.067 48.5437 124.375 48.7121 124.709 48.8223L124.122 50.1675C123.739 50.0099 123.406 49.8451 123.122 49.6731C122.839 49.5011 122.59 49.2935 122.373 49.0503C122.154 48.82 121.943 48.5302 121.742 48.1812ZM125.803 47.4278C125.878 47.4065 125.95 47.3812 126.019 47.3518C126.094 47.3306 126.159 47.3036 126.216 47.2708C126.386 47.1724 126.526 47.0486 126.635 46.8993C126.751 46.7453 126.834 46.5787 126.882 46.3995C126.93 46.2203 126.936 46.0331 126.899 45.8379C126.875 45.6462 126.804 45.4489 126.687 45.246C126.513 44.9456 126.307 44.7291 126.068 44.5965C125.83 44.4638 125.582 44.4009 125.327 44.4079C125.084 44.4182 124.854 44.4698 124.637 44.5626L126.464 47.7283L125.803 47.4278Z" fill="white"/>
<path d="M125.172 55.3378C124.952 54.7798 124.854 54.2642 124.879 53.7909C124.904 53.3176 125.017 52.89 125.219 52.5081C125.434 52.1315 125.713 51.8048 126.057 51.5279C126.41 51.2477 126.804 51.0216 127.24 50.8497C127.659 50.6846 128.093 50.584 128.542 50.5479C128.991 50.5118 129.425 50.5521 129.844 50.669C130.263 50.7859 130.644 50.9983 130.987 51.3063C131.342 51.6196 131.626 52.0465 131.84 52.587C132.039 53.0927 132.126 53.5674 132.099 54.0111C132.081 54.4513 131.968 54.8537 131.759 55.2182C131.559 55.5792 131.282 55.8999 130.929 56.1801C130.58 56.4691 130.179 56.703 129.725 56.8818C129.664 56.9059 129.575 56.9359 129.458 56.9719C129.354 57.0132 129.237 57.0491 129.108 57.0798L127.37 52.6725C126.925 52.8984 126.643 53.2059 126.525 53.5952C126.41 53.9932 126.442 54.4189 126.62 54.8723C126.751 55.2036 126.935 55.5038 127.172 55.773C127.418 56.0387 127.698 56.2507 128.012 56.4088L127.234 57.653C126.878 57.4407 126.572 57.2286 126.318 57.0168C126.063 56.805 125.846 56.5629 125.668 56.2905C125.485 56.0303 125.32 55.7127 125.172 55.3378ZM129.3 55.1907C129.377 55.1806 129.452 55.1662 129.525 55.1474C129.601 55.1373 129.67 55.1202 129.731 55.0961C129.914 55.0239 130.071 54.922 130.2 54.7903C130.338 54.6553 130.444 54.5026 130.518 54.3324C130.592 54.1622 130.625 53.9779 130.617 53.7794C130.622 53.5863 130.581 53.3807 130.495 53.1627C130.368 52.8401 130.196 52.5956 129.979 52.4293C129.762 52.2629 129.527 52.1643 129.273 52.1335C129.031 52.1079 128.796 52.1251 128.568 52.1849L129.909 55.5852L129.3 55.1907Z" fill="white"/>
<path d="M128.329 67.9974C128.204 67.0779 128.308 66.2364 128.64 65.4727C128.973 64.7183 129.494 64.0946 130.203 63.6015C130.912 63.1084 131.772 62.7934 132.785 62.6565C133.797 62.5196 134.706 62.5953 135.511 62.8837C136.325 63.1708 136.993 63.6337 137.514 64.2725C138.037 64.9206 138.361 65.7044 138.485 66.6239C138.624 67.6549 138.484 68.577 138.065 69.3904C137.656 70.2118 137.023 70.846 136.166 71.2929L135.309 69.678C135.848 69.397 136.245 69.0123 136.5 68.5238C136.757 68.0445 136.843 67.4891 136.757 66.8576C136.68 66.2817 136.476 65.7937 136.148 65.3936C135.821 65.0028 135.391 64.7252 134.858 64.5609C134.336 64.4045 133.726 64.3734 133.029 64.4677C132.333 64.5619 131.749 64.7543 131.277 65.0451C130.807 65.3451 130.466 65.7269 130.255 66.1906C130.045 66.6636 129.978 67.188 130.056 67.7638C130.142 68.3954 130.372 68.9081 130.747 69.3019C131.123 69.705 131.608 69.9704 132.202 70.0981L131.819 71.8807C130.874 71.6775 130.091 71.2349 129.469 70.5529C128.848 69.8802 128.468 69.0284 128.329 67.9974Z" fill="white"/>
<path d="M128.82 77.1458C128.847 76.4716 129.025 75.8783 129.355 75.3661C129.685 74.8539 130.128 74.4541 130.683 74.1665C131.248 73.8888 131.876 73.7636 132.569 73.7911C133.272 73.8189 133.884 73.9932 134.406 74.3141C134.937 74.6353 135.347 75.0642 135.635 75.6009C135.923 76.147 136.054 76.7572 136.027 77.4314C136.001 78.0964 135.822 78.6849 135.493 79.1971C135.163 79.7093 134.72 80.1045 134.165 80.3826C133.62 80.6612 132.996 80.7865 132.293 80.7587C131.6 80.7312 130.988 80.5569 130.457 80.2357C129.925 79.9145 129.511 79.4853 129.213 78.9483C128.925 78.4116 128.794 77.8108 128.82 77.1458ZM130.352 77.2065C130.338 77.5624 130.41 77.8701 130.568 78.1296C130.727 78.3985 130.958 78.6047 131.261 78.748C131.565 78.9008 131.932 78.9857 132.363 79.0027C132.803 79.0202 133.176 78.9646 133.481 78.836C133.795 78.7171 134.037 78.5297 134.207 78.2738C134.385 78.0277 134.482 77.7266 134.496 77.3708C134.51 77.0055 134.438 76.6885 134.28 76.4196C134.131 76.151 133.905 75.9404 133.602 75.7877C133.308 75.6353 132.94 75.5504 132.5 75.533C132.07 75.5159 131.697 75.5715 131.382 75.6997C131.068 75.8279 130.821 76.0198 130.642 76.2754C130.463 76.5309 130.366 76.8413 130.352 77.2065Z" fill="white"/>
<path d="M128.579 82.4389L135.383 83.7603L135.047 85.4854L133.502 85.1852L133.528 84.9038C133.919 85.1038 134.216 85.343 134.42 85.6212C134.623 85.8995 134.751 86.2012 134.802 86.5262C134.863 86.8531 134.862 87.1775 134.799 87.4995C134.649 88.2723 134.312 88.8321 133.786 89.1787C133.268 89.5364 132.613 89.6384 131.822 89.4847L127.378 88.6216L127.713 86.8965L131.522 87.6363C132.092 87.7471 132.526 87.7263 132.823 87.5739C133.129 87.4233 133.324 87.1318 133.408 86.6994C133.472 86.3682 133.448 86.077 133.334 85.8258C133.228 85.5856 133.025 85.379 132.724 85.2061C132.424 85.0331 132.016 84.8966 131.501 84.7965L128.244 84.1639L128.579 82.4389Z" fill="white"/>
<path d="M125.948 92.5406C126.115 92.0532 126.333 91.6523 126.6 91.3378C126.866 91.0233 127.151 90.7741 127.452 90.5904C127.75 90.4155 128.022 90.2863 128.269 90.2028L128.864 91.6714C128.564 91.7366 128.26 91.8699 127.953 92.0714C127.651 92.2848 127.429 92.5997 127.285 93.0162C127.173 93.3441 127.148 93.618 127.211 93.838C127.28 94.0699 127.411 94.2194 127.606 94.2865C127.766 94.3414 127.914 94.3281 128.051 94.2464C128.197 94.1678 128.335 94.0417 128.464 93.8682C128.602 93.6976 128.743 93.5034 128.888 93.2855C129.044 93.0618 129.212 92.8322 129.393 92.5969C129.573 92.3615 129.772 92.1575 129.99 91.9848C130.217 91.8151 130.47 91.6991 130.749 91.6366C131.025 91.583 131.336 91.6157 131.682 91.7347C132.258 91.9331 132.645 92.3193 132.844 92.8933C133.052 93.4703 133.028 94.1311 132.771 94.8754C132.591 95.3983 132.322 95.8358 131.962 96.1879C131.612 96.5431 131.199 96.7776 130.724 96.8915L130.266 95.5887C130.577 95.5177 130.841 95.3706 131.057 95.1475C131.278 94.9363 131.439 94.6845 131.54 94.392C131.629 94.135 131.653 93.9056 131.614 93.7036C131.571 93.5105 131.465 93.385 131.297 93.327C131.182 93.2874 131.072 93.2892 130.968 93.3327C130.861 93.385 130.747 93.4846 130.627 93.6316C130.513 93.7906 130.372 93.9996 130.203 94.2588C130.05 94.5033 129.88 94.752 129.693 95.0051C129.507 95.2582 129.296 95.4828 129.06 95.6791C128.824 95.8753 128.556 96.0061 128.256 96.0713C127.956 96.1365 127.615 96.1035 127.234 95.9723C126.8 95.8228 126.453 95.5792 126.192 95.2417C125.94 94.9073 125.79 94.5086 125.741 94.0458C125.693 93.5829 125.761 93.0812 125.948 92.5406Z" fill="white"/>
<path d="M123.267 98.9606C123.522 98.4594 123.837 98.0886 124.212 97.8481C124.583 97.616 124.994 97.5099 125.447 97.5298C125.895 97.5581 126.365 97.6977 126.858 97.9484L130.718 99.9121L129.927 101.466L126.456 99.6998C126.172 99.5553 125.9 99.459 125.641 99.4111C125.39 99.3674 125.155 99.3951 124.936 99.4942C124.722 99.6058 124.538 99.812 124.385 100.113C124.198 100.48 124.162 100.809 124.277 101.099C124.388 101.397 124.611 101.674 124.944 101.927C125.282 102.194 125.701 102.455 126.202 102.71L128.658 103.959L127.868 105.513L121.69 102.37L122.481 100.816L123.822 101.498L123.588 101.648C123.205 101.221 123.001 100.776 122.975 100.31C122.949 99.8449 123.046 99.3949 123.267 98.9606Z" fill="white"/>
<path d="M119.699 105.103C119.961 104.703 120.298 104.453 120.71 104.353C121.123 104.254 121.592 104.376 122.117 104.72L128.915 109.172L127.968 110.618L121.452 106.352C121.287 106.244 121.144 106.206 121.022 106.238C120.908 106.275 120.81 106.357 120.728 106.482C120.687 106.545 120.647 106.614 120.609 106.69C120.578 106.771 120.549 106.858 120.521 106.952L119.274 106.136C119.32 105.93 119.384 105.737 119.469 105.557C119.54 105.379 119.617 105.228 119.699 105.103Z" fill="white"/>
<path d="M116.848 108.969C117.078 108.673 117.347 108.443 117.654 108.278C117.96 108.112 118.3 108.05 118.672 108.09C119.039 108.138 119.433 108.326 119.854 108.654L124.991 112.652L124.646 114.629L119.144 110.346C118.826 110.098 118.554 109.952 118.327 109.907C118.096 109.869 117.882 109.975 117.686 110.227C117.629 110.301 117.573 110.388 117.518 110.488C117.458 110.596 117.4 110.717 117.343 110.851L116.289 110.03C116.351 109.829 116.431 109.642 116.53 109.469C116.621 109.291 116.727 109.124 116.848 108.969ZM123.416 109.823L124.492 110.661L121.703 114.244L120.627 113.407L123.416 109.823Z" fill="white"/>
<path d="M112.251 114.175L113.089 114.808L115.454 117.154C115.747 117.445 116.056 117.566 116.38 117.518C116.705 117.484 117.022 117.31 117.333 116.997C117.59 116.738 117.801 116.419 117.965 116.04C118.129 115.675 118.22 115.297 118.239 114.906L119.711 115.119C119.647 115.742 119.497 116.293 119.26 116.771C119.024 117.262 118.697 117.717 118.282 118.137C117.608 118.815 116.914 119.176 116.198 119.219C115.483 119.261 114.826 118.986 114.227 118.392L111.122 115.313L112.251 114.175ZM113.626 112.589C113.983 112.229 114.369 111.973 114.786 111.818C115.197 111.671 115.607 111.636 116.019 111.714C116.423 111.799 116.785 111.999 117.105 112.316C117.391 112.6 117.578 112.897 117.665 113.208C117.752 113.533 117.754 113.844 117.669 114.143C117.604 114.408 117.492 114.661 117.334 114.9C117.169 115.146 116.971 115.385 116.74 115.618L115.226 117.145L114.307 116.234L115.644 114.887C115.749 114.78 115.845 114.664 115.931 114.538C116.016 114.425 116.066 114.302 116.078 114.169C116.098 114.056 116.087 113.947 116.047 113.841C116.014 113.742 115.954 113.65 115.867 113.564C115.681 113.379 115.458 113.304 115.2 113.338C114.942 113.372 114.691 113.512 114.446 113.758C114.229 113.978 114.077 114.224 113.992 114.496C113.907 114.781 113.895 115.06 113.956 115.331C114.017 115.616 114.157 115.867 114.376 116.085L113.391 115.761C113.131 115.331 112.98 114.918 112.938 114.52C112.897 114.136 112.939 113.781 113.063 113.456C113.188 113.131 113.376 112.842 113.626 112.589Z" fill="white"/>
<path d="M107.523 118.009C107.817 117.777 108.132 117.616 108.469 117.529C108.806 117.441 109.151 117.461 109.503 117.589C109.848 117.723 110.186 117.999 110.518 118.418L114.558 123.521L113.753 125.359L109.425 119.892C109.175 119.576 108.946 119.369 108.737 119.271C108.521 119.18 108.288 119.232 108.038 119.43C107.964 119.488 107.889 119.56 107.813 119.644C107.729 119.735 107.644 119.838 107.557 119.955L106.728 118.908C106.835 118.727 106.958 118.564 107.095 118.42C107.226 118.268 107.368 118.131 107.523 118.009ZM113.7 120.399L114.546 121.468L110.986 124.287L110.139 123.218L113.7 120.399Z" fill="white"/>
<path d="M105.659 119.524L109.526 125.276L108.079 126.249L104.212 120.497L105.659 119.524ZM110.168 126.132L111.172 127.625L109.621 128.668L108.617 127.175L110.168 126.132Z" fill="white"/>
<path d="M99.9209 122.832C100.519 122.519 101.122 122.377 101.73 122.408C102.339 122.438 102.906 122.622 103.432 122.96C103.954 123.311 104.377 123.793 104.698 124.408C105.025 125.03 105.179 125.648 105.161 126.26C105.148 126.881 104.98 127.45 104.659 127.968C104.329 128.49 103.866 128.907 103.268 129.22C102.678 129.529 102.079 129.668 101.471 129.638C100.863 129.608 100.299 129.421 99.7814 129.079C99.2678 128.745 98.8479 128.266 98.5217 127.644C98.1998 127.029 98.0456 126.412 98.059 125.791C98.0724 125.171 98.2376 124.597 98.5546 124.071C98.876 123.554 99.3314 123.141 99.9209 122.832ZM100.632 124.189C100.317 124.355 100.086 124.571 99.94 124.837C99.7858 125.109 99.7224 125.412 99.7497 125.747C99.7687 126.086 99.8783 126.446 100.078 126.828C100.283 127.218 100.517 127.514 100.781 127.714C101.04 127.927 101.323 128.043 101.63 128.063C101.932 128.095 102.241 128.028 102.557 127.863C102.88 127.693 103.119 127.473 103.274 127.202C103.432 126.939 103.502 126.638 103.483 126.298C103.468 125.967 103.359 125.607 103.154 125.217C102.954 124.835 102.72 124.54 102.452 124.331C102.184 124.122 101.895 124.004 101.584 123.976C101.273 123.949 100.956 124.02 100.632 124.189Z" fill="white"/>
<path d="M95.1965 125.264L97.4348 131.824L95.7717 132.392L95.2632 130.901L95.5202 130.784C95.5411 131.222 95.4815 131.599 95.3415 131.914C95.2014 132.23 95.0032 132.49 94.7468 132.697C94.4935 132.912 94.2115 133.072 93.9011 133.178C93.156 133.433 92.5023 133.418 91.9402 133.134C91.3721 132.863 90.958 132.346 90.6977 131.583L89.2357 127.298L90.8989 126.731L92.152 130.403C92.3396 130.953 92.5734 131.319 92.8533 131.501C93.1362 131.691 93.4861 131.716 93.903 131.573C94.2224 131.464 94.4628 131.298 94.6242 131.075C94.7798 130.863 94.8578 130.584 94.8583 130.237C94.8588 129.891 94.7743 129.469 94.6048 128.972L93.5333 125.832L95.1965 125.264Z" fill="white"/>
<path d="M83.4753 133.88L84.3789 134.401L83.3109 135.9L85.1563 136.03L84.9689 137.103L83.1949 136.539L83.6521 138.322L82.5925 138.459L82.5814 136.618L81.0091 137.615L80.5692 136.623L82.307 136.03L80.8932 134.851L81.6488 134.116L82.7639 135.616L83.4753 133.88Z" fill="white"/>
<path d="M69.6801 128.646C70.5757 128.731 71.3435 129.022 71.9834 129.516C72.6233 130.011 73.1024 130.659 73.4209 131.462C73.7393 132.265 73.8497 133.174 73.7522 134.191C73.6546 135.208 73.3736 136.076 72.9093 136.794C72.4441 137.521 71.841 138.066 71.1001 138.428C70.3499 138.789 69.5129 138.925 68.5893 138.837C67.5537 138.737 66.6878 138.391 65.9916 137.797C65.2851 137.211 64.812 136.45 64.5723 135.514L66.3401 135.048C66.4907 135.637 66.7747 136.111 67.1921 136.471C67.6002 136.83 68.1214 137.041 68.7558 137.101C69.3342 137.157 69.8557 137.07 70.3201 136.842C70.7753 136.613 71.1436 136.257 71.4252 135.776C71.6965 135.303 71.8658 134.716 71.9329 134.017C72 133.317 71.9458 132.704 71.7703 132.179C71.5854 131.653 71.2913 131.234 70.8881 130.922C70.4756 130.61 69.9801 130.426 69.4017 130.37C69.1031 130.341 68.7912 130.354 68.4659 130.407C68.1407 130.461 67.8376 130.578 67.5567 130.758C67.2655 130.947 67.0227 131.22 66.8283 131.578C66.6246 131.935 66.495 132.403 66.4395 132.981L66.3858 133.541L66.1008 132.242L68.8996 132.511L68.7439 134.134L64.7415 133.75L65.2504 128.447L66.8458 128.6L66.9459 130.205L66.6609 129.938C66.8619 129.609 67.1183 129.341 67.4298 129.136C67.7414 128.93 68.0892 128.789 68.4731 128.713C68.8486 128.627 69.2509 128.604 69.6801 128.646Z" fill="white"/>
<path d="M60.3639 127.004C60.9423 127.163 61.4133 127.394 61.7769 127.698C62.1404 128.002 62.4143 128.35 62.5986 128.74C62.7713 129.138 62.865 129.557 62.8798 129.999C62.8921 130.449 62.8362 130.9 62.712 131.352C62.5928 131.786 62.4128 132.193 62.1721 132.574C61.9313 132.955 61.6385 133.278 61.2936 133.543C60.9487 133.808 60.5501 133.985 60.0978 134.075C59.634 134.171 59.1219 134.142 58.5616 133.988C58.0374 133.844 57.6059 133.628 57.2669 133.341C56.9255 133.062 56.6717 132.73 56.5055 132.344C56.3369 131.967 56.2465 131.554 56.2342 131.103C56.2128 130.65 56.2667 130.189 56.3958 129.719C56.4132 129.656 56.4426 129.566 56.4839 129.451C56.5137 129.343 56.555 129.228 56.6078 129.106L61.1763 130.362C61.2627 129.87 61.1858 129.46 60.9456 129.132C60.6963 128.801 60.3367 128.571 59.8667 128.442C59.5233 128.347 59.1728 128.314 58.8152 128.342C58.455 128.38 58.1174 128.476 57.8023 128.633L57.2747 127.263C57.658 127.106 58.0109 126.989 58.3333 126.912C58.6557 126.836 58.9792 126.808 59.3038 126.829C59.6219 126.839 59.9753 126.897 60.3639 127.004ZM58.0037 130.394C57.9657 130.461 57.9323 130.53 57.9034 130.6C57.8654 130.667 57.8378 130.732 57.8204 130.796C57.7683 130.985 57.756 131.171 57.7836 131.354C57.8087 131.546 57.8672 131.722 57.9589 131.883C58.0507 132.045 58.1782 132.182 58.3416 132.295C58.4935 132.414 58.6824 132.505 58.9083 132.567C59.2427 132.659 59.5415 132.668 59.8046 132.595C60.0678 132.521 60.288 132.392 60.465 132.207C60.6306 132.029 60.758 131.831 60.8472 131.613L57.3225 130.644L58.0037 130.394Z" fill="white"/>
<path d="M53.4529 124.569C53.7998 124.711 54.0941 124.907 54.3357 125.158C54.5774 125.409 54.7289 125.719 54.7903 126.088C54.843 126.454 54.7682 126.885 54.5658 127.379L52.0995 133.403L50.1033 133.603L52.7454 127.15C52.8981 126.777 52.9658 126.476 52.9485 126.246C52.9225 126.012 52.7621 125.835 52.4672 125.715C52.3805 125.679 52.2815 125.649 52.1703 125.623C52.0504 125.595 51.9184 125.571 51.7741 125.552L52.2801 124.316C52.4906 124.322 52.6923 124.348 52.8851 124.397C53.0815 124.437 53.2707 124.494 53.4529 124.569ZM54.3997 131.124L53.883 132.386L49.6807 130.665L50.1974 129.403L54.3997 131.124Z" fill="white"/>
<path d="M43.9721 119.457L43.519 120.404L41.6911 123.19C41.4649 123.535 41.4075 123.861 41.5189 124.17C41.6174 124.481 41.8508 124.758 42.2191 124.999C42.5247 125.2 42.8792 125.343 43.2828 125.428C43.6734 125.516 44.0621 125.53 44.449 125.47L44.5339 126.955C43.9105 127.017 43.3409 126.98 42.8252 126.843C42.2966 126.709 41.7854 126.48 41.2917 126.156C40.4924 125.632 40.0005 125.023 39.8161 124.331C39.6317 123.638 39.7708 122.939 40.2336 122.234L42.6322 118.578L43.9721 119.457ZM45.8007 120.489C46.2238 120.767 46.5524 121.094 46.7866 121.472C47.0129 121.845 47.1288 122.24 47.1345 122.659C47.1323 123.072 47.0078 123.467 46.761 123.843C46.5399 124.18 46.2857 124.422 45.9982 124.57C45.6978 124.72 45.3928 124.784 45.0833 124.76C44.8102 124.749 44.5408 124.69 44.2748 124.583C44.001 124.47 43.727 124.324 43.4528 124.144L41.6544 122.964L42.3639 121.883L43.9507 122.924C44.0761 123.006 44.2092 123.077 44.35 123.135C44.4778 123.197 44.608 123.221 44.7405 123.207C44.8548 123.203 44.9599 123.171 45.0556 123.111C45.1462 123.058 45.2249 122.981 45.2918 122.879C45.4357 122.66 45.4652 122.427 45.3802 122.18C45.2952 121.934 45.1078 121.716 44.8178 121.525C44.5592 121.356 44.2882 121.256 44.0046 121.227C43.7081 121.201 43.4328 121.244 43.1789 121.358C42.912 121.474 42.6937 121.662 42.5241 121.92L42.6452 120.89C43.0144 120.55 43.3897 120.319 43.7709 120.2C44.1392 120.083 44.4951 120.053 44.8387 120.11C45.1822 120.167 45.5029 120.293 45.8007 120.489Z" fill="white"/>
<path d="M38.1447 114.838L31.1428 121.693L26.5597 117.012L27.725 115.871L31.0394 119.257L32.707 117.624L29.8253 114.681L30.9805 113.55L33.8622 116.493L36.8759 113.542L38.1447 114.838Z" fill="white"/>
<path d="M32.9338 109.246L27.4245 113.452L26.3582 112.055L27.8557 110.912L28.0401 111.107C27.7027 111.329 27.3457 111.449 26.969 111.465C26.5924 111.481 26.2432 111.418 25.9214 111.274C25.5865 111.129 25.3195 110.926 25.1205 110.665C24.9783 110.479 24.8707 110.284 24.7978 110.08C24.7117 109.875 24.6563 109.64 24.6315 109.376L26.395 109.091C26.4128 109.207 26.4514 109.343 26.5109 109.498C26.5703 109.653 26.6484 109.794 26.745 109.92C26.8588 110.069 26.9957 110.195 27.1559 110.296C27.3104 110.391 27.4862 110.451 27.6833 110.478C27.8746 110.497 28.089 110.468 28.3265 110.393C28.4535 110.344 28.6075 110.267 28.7885 110.164C28.9563 110.06 29.1929 109.891 29.4984 109.658L31.8675 107.85L32.9338 109.246Z" fill="white"/>
<path d="M28.1195 101.984C28.4212 102.502 28.5955 102.997 28.6423 103.469C28.6891 103.941 28.6414 104.38 28.4994 104.788C28.3445 105.193 28.1178 105.558 27.8193 105.884C27.5127 106.214 27.1569 106.497 26.7519 106.733C26.3631 106.959 25.9494 107.124 25.5108 107.227C25.0721 107.331 24.637 107.356 24.2053 107.304C23.7735 107.252 23.3648 107.099 22.9792 106.847C22.5807 106.59 22.2353 106.211 21.943 105.709C21.6695 105.239 21.5124 104.783 21.4717 104.341C21.4229 103.903 21.4742 103.488 21.6257 103.096C21.7691 102.709 21.9941 102.35 22.3007 102.02C22.6026 101.681 22.9641 101.39 23.3853 101.145C23.442 101.112 23.5254 101.068 23.6354 101.015C23.7326 100.959 23.8426 100.905 23.9654 100.856L26.3488 104.95C26.7545 104.66 26.9866 104.313 27.045 103.911C27.0987 103.5 27.0029 103.084 26.7578 102.663C26.5786 102.355 26.3515 102.086 26.0765 101.855C25.7933 101.63 25.4845 101.463 25.15 101.354L25.7321 100.006C26.1158 100.162 26.4496 100.326 26.7335 100.497C27.0174 100.668 27.2678 100.875 27.4848 101.117C27.7052 101.347 27.9168 101.636 28.1195 101.984ZM24.0608 102.752C23.9866 102.774 23.9147 102.799 23.8452 102.829C23.7709 102.85 23.7055 102.878 23.6488 102.911C23.4787 103.01 23.3396 103.134 23.2315 103.284C23.1153 103.438 23.0335 103.605 22.9861 103.784C22.9387 103.964 22.9338 104.151 22.9714 104.346C22.9962 104.538 23.0675 104.735 23.1854 104.937C23.3599 105.237 23.5668 105.453 23.8061 105.584C24.0455 105.716 24.2931 105.778 24.5487 105.77C24.7916 105.759 25.0214 105.707 25.238 105.613L23.3993 102.454L24.0608 102.752Z" fill="white"/>
<path d="M24.6628 94.8375C24.8849 95.3947 24.9844 95.91 24.9612 96.3834C24.938 96.8567 24.8262 97.2848 24.6256 97.6674C24.4128 98.0448 24.1348 98.3726 23.7916 98.6507C23.4397 98.9322 23.0461 99.1597 22.6108 99.3333C22.1929 99.4999 21.7595 99.602 21.3104 99.6398C20.8613 99.6776 20.4271 99.6388 20.0078 99.5234C19.5885 99.4081 19.2067 99.197 18.8625 98.8903C18.5061 98.5784 18.2203 98.1525 18.0051 97.6127C17.8038 97.1078 17.7156 96.6334 17.7405 96.1896C17.7566 95.7493 17.8685 95.3466 18.076 94.9813C18.2748 94.6195 18.5502 94.2979 18.9021 94.0163C19.2505 93.7261 19.6511 93.4907 20.1038 93.3103C20.1647 93.286 20.2535 93.2556 20.3702 93.2192C20.4747 93.1775 20.5913 93.1411 20.7201 93.11L22.4746 97.5109C22.9187 97.2834 23.1992 96.9748 23.3163 96.5851C23.4299 96.1867 23.3964 95.7611 23.216 95.3084C23.0841 94.9776 22.8991 94.678 22.6609 94.4097C22.4141 94.1449 22.1333 93.9339 21.8184 93.7769L22.5926 92.53C22.9492 92.741 23.2552 92.9519 23.5108 93.1628C23.7664 93.3737 23.9837 93.615 24.1627 93.8867C24.3468 94.1462 24.5135 94.4632 24.6628 94.8375ZM20.5352 94.9998C20.4586 95.0102 20.3838 95.0249 20.3106 95.044C20.234 95.0543 20.1653 95.0716 20.1043 95.0959C19.9215 95.1688 19.7656 95.2713 19.6367 95.4034C19.499 95.539 19.3936 95.6921 19.3203 95.8625C19.247 96.033 19.2146 96.2175 19.223 96.4159C19.2193 96.6091 19.2609 96.8145 19.3476 97.0321C19.476 97.3543 19.6489 97.5981 19.8663 97.7637C20.0836 97.9293 20.3194 98.027 20.5734 98.0569C20.8153 98.0816 21.0503 98.0636 21.2784 98.0029L19.9248 94.6075L20.5352 94.9998Z" fill="white"/>
<path d="M21.4593 82.1886C21.587 83.1077 21.4864 83.9496 21.1574 84.7145C20.8271 85.47 20.3084 86.0957 19.6014 86.5913C18.8943 87.087 18.0349 87.4051 17.023 87.5457C16.0111 87.6863 15.1021 87.6139 14.296 87.3285C13.4806 87.0444 12.811 86.5839 12.2873 85.9469C11.7622 85.3008 11.4358 84.5181 11.3081 83.5991C11.1649 82.5687 11.3017 81.646 11.7184 80.8311C12.1245 80.0082 12.7552 79.3718 13.6105 78.9217L14.4732 80.5335C13.9353 80.8164 13.5395 81.2026 13.2857 81.692C13.0307 82.1722 12.9471 82.7279 13.0348 83.3592C13.1148 83.9347 13.3197 84.422 13.6495 84.8209C13.9781 85.2105 14.4091 85.4865 14.9427 85.649C15.4656 85.8034 16.0752 85.8322 16.7715 85.7355C17.4677 85.6388 18.051 85.4442 18.5213 85.1517C18.9904 84.85 19.3299 84.4669 19.5397 84.0025C19.7483 83.5287 19.8126 83.0041 19.7327 82.4285C19.6449 81.7973 19.413 81.2854 19.0367 80.893C18.6592 80.4912 18.1731 80.2276 17.5784 80.102L17.9551 78.3181C18.9007 78.5179 19.6857 78.9576 20.31 79.6373C20.933 80.3078 21.3162 81.1582 21.4593 82.1886Z" fill="white"/>
<path d="M20.9343 73.0461C20.9101 73.7205 20.734 74.3143 20.406 74.8277C20.078 75.3411 19.6369 75.7426 19.0825 76.0322C18.5191 76.312 17.8909 76.4395 17.1978 76.4145C16.4953 76.3893 15.8825 76.2172 15.3594 75.8982C14.8269 75.579 14.4156 75.1515 14.1254 74.6159C13.8355 74.0709 13.7027 73.4612 13.7269 72.7868C13.7508 72.1218 13.9268 71.5326 14.2547 71.0192C14.5827 70.5058 15.0237 70.109 15.5777 69.8288C16.1224 69.5483 16.7459 69.4207 17.4484 69.446C18.1415 69.4709 18.7543 69.643 19.2868 69.9623C19.8193 70.2815 20.2353 70.7091 20.5349 71.2451C20.8251 71.7807 20.9582 72.3811 20.9343 73.0461ZM19.4029 72.991C19.4157 72.6351 19.3424 72.3276 19.1829 72.0687C19.0237 71.8004 18.792 71.5951 18.4876 71.4528C18.1835 71.3012 17.8161 71.2177 17.3852 71.2022C16.945 71.1863 16.5725 71.2433 16.2678 71.373C15.9539 71.493 15.7127 71.6813 15.5441 71.9378C15.3664 72.1846 15.2711 72.486 15.2583 72.8419C15.2452 73.2072 15.3182 73.524 15.4773 73.7923C15.6271 74.0603 15.8541 74.2701 16.1581 74.4217C16.4528 74.573 16.8202 74.6566 17.2604 74.6724C17.6913 74.6879 18.0638 74.6309 18.3779 74.5016C18.6921 74.3722 18.9381 74.1794 19.1162 73.9232C19.2942 73.667 19.3898 73.3563 19.4029 72.991Z" fill="white"/>
<path d="M21.1575 67.7469L14.349 66.4501L14.6778 64.7238L16.2246 65.0184L16.1996 65.2999C15.8081 65.1013 15.51 64.8632 15.3052 64.5857C15.1005 64.3082 14.9718 64.007 14.9192 63.6821C14.8574 63.3555 14.8571 63.0311 14.9185 62.7088C15.0658 61.9355 15.4016 61.3745 15.926 61.0259C16.4429 60.6664 17.0972 60.5621 17.889 60.7129L22.336 61.5599L22.0072 63.2862L18.1955 62.5602C17.6247 62.4515 17.1911 62.4738 16.8947 62.6273C16.5891 62.779 16.3951 63.0712 16.3127 63.5039C16.2496 63.8354 16.2752 64.1265 16.3897 64.3773C16.4966 64.6171 16.7007 64.8229 17.0019 64.9948C17.3031 65.1666 17.7115 65.3017 18.2271 65.3999L21.4864 66.0206L21.1575 67.7469Z" fill="white"/>
<path d="M23.7514 57.6416C23.5854 58.1297 23.3695 58.5314 23.1038 58.8469C22.838 59.1624 22.5549 59.4126 22.2544 59.5974C21.957 59.7734 21.685 59.9036 21.4384 59.988L20.8384 58.5217C21.1382 58.4553 21.4413 58.3209 21.7479 58.1183C22.0486 57.9038 22.2698 57.588 22.4117 57.171C22.5234 56.8427 22.5473 56.5687 22.4835 56.349C22.4138 56.1173 22.2813 55.9683 22.0861 55.9019C21.9264 55.8476 21.7781 55.8615 21.6413 55.9436C21.4956 56.0227 21.3585 56.1493 21.2299 56.3234C21.0925 56.4945 20.952 56.6892 20.8084 56.9076C20.6529 57.1319 20.4855 57.3621 20.3062 57.5981C20.1269 57.8341 19.9285 58.0388 19.7111 58.2124C19.4848 58.3829 19.2321 58.4999 18.9531 58.5633C18.6772 58.6179 18.3662 58.5864 18.0201 58.4686C17.4434 58.2724 17.0545 57.8877 16.8536 57.3144C16.6437 56.7381 16.6656 56.0773 16.9192 55.332C17.0973 54.8085 17.3653 54.37 17.7231 54.0166C18.0721 53.6601 18.4841 53.424 18.959 53.3084L19.4222 54.6095C19.1106 54.6816 18.8473 54.8297 18.6325 55.0536C18.4119 55.2656 18.2518 55.5181 18.1522 55.8109C18.0646 56.0682 18.041 56.2977 18.0812 56.4995C18.1245 56.6925 18.2304 56.8176 18.399 56.8749C18.5143 56.9142 18.624 56.9119 18.728 56.8681C18.835 56.8154 18.9483 56.7153 19.0678 56.5679C19.1814 56.4085 19.322 56.199 19.4896 55.9392C19.6422 55.6941 19.8112 55.4447 19.9966 55.191C20.1819 54.9372 20.3922 54.7118 20.6276 54.5147C20.863 54.3176 21.1305 54.1858 21.4303 54.1195C21.7301 54.0532 22.0707 54.085 22.4523 54.2148C22.887 54.3627 23.2353 54.6049 23.497 54.9415C23.7498 55.275 23.9015 55.6731 23.9519 56.1358C24.0024 56.5984 23.9356 57.1004 23.7514 57.6416Z" fill="white"/>
<path d="M26.4079 51.2092C26.1547 51.7114 25.8412 52.0834 25.4674 52.3252C25.0977 52.5587 24.6866 52.6663 24.234 52.648C23.7856 52.6214 23.3145 52.4836 22.8207 52.2346L18.9543 50.2852L19.7392 48.7286L23.2164 50.4818C23.501 50.6253 23.7731 50.7205 24.0328 50.7675C24.2842 50.8102 24.519 50.7817 24.7373 50.6818C24.9514 50.5693 25.1344 50.3625 25.2864 50.0612C25.472 49.693 25.5067 49.3641 25.3903 49.0745C25.2781 48.7765 25.0548 48.5012 24.7203 48.2486C24.3817 47.9834 23.9613 47.7242 23.4592 47.471L20.9987 46.2305L21.7836 44.6739L27.9723 47.7942L27.1875 49.3508L25.8443 48.6736L26.0774 48.5235C26.4616 48.9481 26.6676 49.3931 26.6954 49.8584C26.7232 50.3238 26.6273 50.7741 26.4079 51.2092Z" fill="white"/>
<path d="M29.9539 45.0513C29.6935 45.4521 29.3572 45.703 28.9451 45.8041C28.533 45.9052 28.0636 45.7847 27.537 45.4426L20.7229 41.0156L21.665 39.5656L28.1961 43.8087C28.3612 43.9159 28.5046 43.9532 28.6264 43.9206C28.7403 43.8828 28.8382 43.8011 28.9199 43.6753C28.9607 43.6125 29.0002 43.5431 29.0383 43.4673C29.0685 43.3863 29.0974 43.2989 29.1249 43.205L30.3745 44.0168C30.3301 44.2227 30.2661 44.4159 30.1825 44.5962C30.1118 44.7738 30.0356 44.9255 29.9539 45.0513Z" fill="white"/>
<path d="M32.7899 41.1774C32.5607 41.4741 32.2931 41.7056 31.987 41.8718C31.6809 42.038 31.3417 42.1016 30.9692 42.0626C30.6024 42.0161 30.2076 41.8296 29.7848 41.503L24.6337 37.5237L24.9712 35.5461L30.4895 39.809C30.8084 40.0553 31.081 40.2007 31.3072 40.2452C31.5391 40.2823 31.7525 40.1747 31.9473 39.9225C32.0046 39.8483 32.0602 39.761 32.1141 39.6606C32.1738 39.5527 32.2317 39.4316 32.288 39.2975L33.3449 40.114C33.284 40.3155 33.2044 40.5028 33.1064 40.6758C33.0157 40.8544 32.9102 41.0217 32.7899 41.1774ZM26.2188 40.3471L25.1396 39.5134L27.9156 35.9198L28.9948 36.7535L26.2188 40.3471Z" fill="white"/>
<path d="M37.369 35.9548L36.5291 35.3251L34.1549 32.9873C33.8611 32.698 33.552 32.5778 33.2276 32.6267C32.9032 32.6623 32.5864 32.8371 32.2773 33.1509C32.0209 33.4114 31.8112 33.7311 31.6485 34.1102C31.4856 34.4759 31.3957 34.8544 31.3789 35.2455L29.906 35.0382C29.9674 34.4147 30.1156 33.8635 30.3505 33.3845C30.5853 32.8923 30.9098 32.4358 31.3241 32.0151C31.9949 31.3339 32.688 30.9706 33.4034 30.9254C34.1188 30.8801 34.777 31.1533 35.3781 31.7452L38.4935 34.8129L37.369 35.9548ZM35.9994 37.5461C35.6443 37.9067 35.2586 38.1648 34.8423 38.3205C34.4325 38.4694 34.0219 38.5057 33.6104 38.4294C33.2055 38.3464 32.8428 38.147 32.5222 37.8314C32.235 37.5486 32.0472 37.2518 31.9586 36.941C31.87 36.617 31.8676 36.3055 31.9514 36.0066C32.0156 35.741 32.1264 35.4883 32.2836 35.2485C32.4473 35.002 32.6443 34.7619 32.8745 34.5282L34.3837 32.9955L35.3053 33.903L33.9736 35.2553C33.8684 35.3622 33.7732 35.4789 33.688 35.6055C33.6028 35.7188 33.554 35.8418 33.5418 35.9744C33.5228 36.0873 33.5335 36.1965 33.5741 36.3022C33.608 36.4014 33.6684 36.4937 33.7552 36.5792C33.9422 36.7633 34.1648 36.8378 34.423 36.8027C34.6812 36.7676 34.9319 36.6265 35.1753 36.3794C35.3923 36.159 35.5428 35.9126 35.6268 35.6402C35.7108 35.3546 35.7219 35.0762 35.6602 34.8049C35.5983 34.5204 35.4572 34.2696 35.2368 34.0526L36.2235 34.3731C36.4853 34.8019 36.6376 35.2149 36.6804 35.6122C36.7231 35.9963 36.6828 36.3512 36.5594 36.6769C36.436 37.0026 36.2493 37.2923 35.9994 37.5461Z" fill="white"/>
<path d="M42.0831 32.1059C41.79 32.3396 41.475 32.5009 41.1382 32.5897C40.8014 32.6784 40.4568 32.6596 40.1042 32.5332C39.759 32.401 39.4198 32.126 39.0867 31.7083L35.0282 26.6194L35.8258 24.7785L40.1736 30.2301C40.4248 30.5452 40.6551 30.7512 40.8642 30.8481C41.0807 30.9392 41.3135 30.8854 41.5627 30.6867C41.636 30.6283 41.7107 30.5567 41.787 30.4719C41.8705 30.3813 41.9556 30.2775 42.0421 30.1605L42.8749 31.2047C42.7677 31.386 42.646 31.549 42.5096 31.6938C42.3791 31.8458 42.237 31.9832 42.0831 32.1059ZM35.8973 29.7384L35.047 28.6723L38.5972 25.841L39.4475 26.9071L35.8973 29.7384Z" fill="white"/>
<path d="M43.9404 30.5808L40.0529 24.8428L41.4961 23.865L45.3837 29.603L43.9404 30.5808ZM39.407 23.9898L38.3977 22.5L39.9457 21.4512L40.955 22.941L39.407 23.9898Z" fill="white"/>
<path d="M49.6669 27.2558C49.0703 27.5711 48.4677 27.7147 47.8592 27.6866C47.2506 27.6584 46.6826 27.4763 46.1551 27.1403C45.6316 26.7915 45.2077 26.3106 44.8836 25.6974C44.5551 25.076 44.3986 24.459 44.4141 23.8466C44.4252 23.2258 44.5905 22.6561 44.9099 22.1374C45.2377 21.6143 45.6999 21.195 46.2965 20.8797C46.8848 20.5687 47.4832 20.4273 48.0918 20.4554C48.7003 20.4836 49.2642 20.6679 49.7834 21.0083C50.2982 21.3405 50.7199 21.8173 51.0484 22.4387C51.3725 23.0519 51.529 23.6688 51.5179 24.2896C51.5068 24.9103 51.3437 25.4842 51.0286 26.0112C50.7091 26.5299 50.2552 26.9448 49.6669 27.2558ZM48.9508 25.901C49.2656 25.7346 49.4955 25.5176 49.6404 25.2502C49.7936 24.9784 49.8559 24.6752 49.8273 24.3404C49.8071 24.0013 49.6962 23.6411 49.4947 23.26C49.2889 22.8705 49.0537 22.5761 48.7893 22.3766C48.5287 22.1645 48.2452 22.0493 47.9388 22.0311C47.6362 22.0002 47.3275 22.068 47.0126 22.2344C46.6895 22.4053 46.4513 22.6266 46.2981 22.8984C46.1406 23.1619 46.0719 23.4632 46.0922 23.8023C46.1081 24.1332 46.2189 24.4933 46.4248 24.8828C46.6263 25.2639 46.8614 25.5584 47.1303 25.7661C47.3991 25.9738 47.6889 26.091 47.9998 26.1175C48.3106 26.144 48.6276 26.0718 48.9508 25.901Z" fill="white"/>
<path d="M54.383 24.8052L52.1206 18.254L53.7817 17.6803L54.2956 19.1687L54.039 19.287C54.0165 18.8486 54.0747 18.4715 54.2136 18.1559C54.3525 17.8402 54.5497 17.5787 54.8054 17.3714C55.0579 17.1553 55.3393 16.9937 55.6493 16.8866C56.3935 16.6296 57.0472 16.6419 57.6104 16.9233C58.1794 17.1928 58.5955 17.7085 58.8586 18.4704L60.3363 22.7493L58.6752 23.323L57.4086 19.6553C57.2189 19.1061 56.9838 18.7411 56.7033 18.5603C56.4196 18.3707 56.0696 18.3478 55.6533 18.4916C55.3343 18.6017 55.0946 18.7688 54.934 18.9928C54.7792 19.205 54.7021 19.4844 54.7029 19.8312C54.7037 20.178 54.7897 20.5994 54.9611 21.0955L56.0441 24.2316L54.383 24.8052Z" fill="white"/>
<path d="M66.0723 16.148L65.1667 15.6301L66.2293 14.1275L64.3834 14.004L64.5669 12.9301L66.3429 13.4883L65.8793 11.7063L66.9384 11.5656L66.9561 13.4069L68.5248 12.4043L68.9684 13.3948L67.2327 13.9942L68.6508 15.1672L67.8979 15.9055L66.7773 14.4092L66.0723 16.148Z" fill="white"/>
<circle cx="74.513" cy="74.5123" r="26.7857" fill="white"/>
<path d="M77.1815 65.2673V58.4414L63.7986 72.199V90.5834H70.3158V89.5997H69.3691V88.6169H65.6911V73.0197L75.2891 63.1545V71.8967H77.1815V67.6948L84.4053 73.1122V88.6169H80.7272V89.5997H79.7806V81.7328V73.8641H77.8881V81.7328V88.6178H75.9948V81.7328V73.8641H74.1015V81.7328V88.6178H72.2091V81.7328V73.8641H70.3158V81.7328V89.6006H71.2624V90.5843H78.8339V89.6006H79.7806V90.5834H86.2986V72.1074L77.1815 65.2673Z" fill="url(#paint1_linear_683_193)"/>
<defs>
<linearGradient id="paint0_linear_683_193" x1="0" y1="75" x2="150" y2="75" gradientUnits="userSpaceOnUse">
<stop stop-color="#BDAD7B"/>
<stop offset="1" stop-color="#615328"/>
</linearGradient>
<linearGradient id="paint1_linear_683_193" x1="63.7986" y1="74.5128" x2="86.2986" y2="74.5128" gradientUnits="userSpaceOnUse">
<stop stop-color="#BDAD7B"/>
<stop offset="1" stop-color="#615328"/>
</linearGradient>
</defs>
</svg>
